<?xml version="1.0" encoding="UTF-8"?>
<svg width="92px" height="92px" viewBox="0 0 92 92" version="1.1" xmlns="http://www.w3.org/2000/svg" xmlns:xlink="http://www.w3.org/1999/xlink">
    <!-- Generator: sketchtool 50.2 (55047) - http://www.bohemiancoding.com/sketch -->
    <title>571C4888-AE77-4E0E-9FF6-33A9482F5D40</title>
    <desc>Created with sketchtool.</desc>
    <defs>
        <rect id="path-1" x="0" y="0" width="92" height="92"></rect>
    </defs>
    <g id="extra-elements" stroke="none" stroke-width="1" fill="none" fill-rule="evenodd">
        <g id="Misc-Element" transform="translate(-193.000000, -392.000000)">
            <g id="Group-24-Copy" transform="translate(193.000000, 392.000000)">
                <g id="Rectangle-4">
                    <use fill="#FFFFFF" xlink:href="#path-1"></use>
                    <use fill-opacity="0.1" fill="#00BCB5" xlink:href="#path-1"></use>
                </g>
                <path d="M67.2777613,43.215515 C67.9561007,43.8356747 68.1801703,44.7909783 67.849189,45.6494795 C67.5177038,46.5078121 66.7105327,47.06251 65.7929226,47.06251 L62.7109585,47.06251 L62.7109585,64.7314572 C62.7109585,65.432075 62.1447378,66 61.4464101,66 L50.8721417,66 C50.173814,66 49.6075932,65.4319907 49.6075932,64.7314572 L49.6075932,54.0033946 L43.3926028,54.0033946 L43.3926028,64.7313729 C43.3926028,65.4319907 42.8263821,65.9999158 42.1280544,65.9999158 L31.553282,65.9999158 C30.8549543,65.9999158 30.2887336,65.4319065 30.2887336,64.7313729 L30.2887336,47.06251 L27.2073574,47.06251 C26.2896633,47.06251 25.4825762,46.5078963 25.151091,45.6494795 C24.8196898,44.7910626 25.0437594,43.8356747 25.7220988,43.2155993 L45.0148394,25.5805203 C45.8613151,24.8065213 47.1382931,24.8064371 47.9851047,25.5806046 L67.2777613,43.215515 Z M63.5743441,28 C64.3617356,28 65,28.6381347 65,29.4252717 L65,38 L54,28 L63.5743441,28 Z" id="Combined-Shape" fill="#09A39D" fill-rule="nonzero" opacity="0.109999999"></path>
            </g>
        </g>
    </g>
</svg>