<?xml version="1.0" encoding="UTF-8"?>
<svg width="826px" height="185px" viewBox="0 0 826 185" version="1.1" xmlns="http://www.w3.org/2000/svg" xmlns:xlink="http://www.w3.org/1999/xlink">
    <!-- Generator: Sketch 53 (72520) - https://sketchapp.com -->
    <title>Artboard</title>
    <desc>Created with Sketch.</desc>
    <g id="Artboard" stroke="none" stroke-width="1" fill="none" fill-rule="evenodd">
        <g id="logo" transform="translate(2.000000, 2.000000)" fill-rule="nonzero">
            <path d="M176.297083,165.683732 L177.055417,165.683732 C177.697083,162.086118 174.05125,159.865164 171.77625,157.839686 C156.297083,144.073095 132.892917,133.280255 104.234583,133.188755 C76.8220833,133.101414 53.1720833,143.062436 37.8304167,156.346573 C35.6429167,158.247277 32.98875,160.584686 32.5470833,163.446141 C53.42625,155.223618 77.3554167,145.624436 104.617917,146.630936 C124.017917,147.358777 143.222083,152.640823 159.322083,158.588323 C165.50125,160.871664 171.209583,163.471095 176.297083,165.683732" id="Fill-1" fill="#F4D50B"></path>
            <path d="M177.432083,143.645541 C178.34875,134.720132 177.365417,123.906495 178.182083,114.881268 L194.78625,114.881268 C200.182083,114.881268 205.827917,115.484336 210.257083,114.136791 C209.890417,110.634836 206.290417,108.896336 204.22375,106.667064 C173.29875,73.5024727 140.032083,41.0782 109.140417,7.3147 C108.18625,6.27076818 107.34875,4.59465455 105.744583,4.32015455 C102.240417,4.78181364 100.290417,8.06749545 98.2029167,10.2967682 C83.2529167,26.2260864 67.68625,42.9206773 52.5445833,59.2326318 C43.8779167,68.5656318 34.4695833,77.2082227 25.7570833,86.4996318 C21.4070833,91.1370182 17.1529167,95.7619273 12.5529167,100.320291 C8.07375,104.741405 2.59458333,108.775723 0.09875,114.881268 L32.17375,114.881268 C33.04875,122.854245 32.2945833,132.44095 32.54875,141.033632 C33.0320833,142.639041 34.5570833,140.443041 34.81125,140.284995 C40.42375,136.670745 47.1820833,132.054155 54.0529167,129.454723 L54.0529167,100.69045 L31.4154167,100.69045 C33.18625,96.4065864 36.99875,93.4952227 40.0945833,90.2261773 C55.13625,74.3550864 71.4154167,58.4590409 86.5029167,42.0472682 C89.5820833,38.7033591 92.4779167,35.2762682 95.5570833,31.9614727 C98.54875,28.7423364 101.219583,25.0823364 104.98625,22.6243136 C107.477917,23.2232227 108.390417,25.8392909 109.89875,27.4779727 C129.09875,48.4148364 150.39875,68.9898591 169.88625,90.2261773 C172.844583,93.4577909 176.77375,95.9740409 178.932083,99.9376545 C176.08625,101.297677 171.852917,100.69045 167.994583,100.69045 L156.302917,100.69045 C155.594583,109.7032 156.052917,119.863859 155.919583,129.454723 C157.28625,131.035177 159.42375,131.829564 161.202917,132.811109 C166.594583,135.776541 172.84875,139.382473 177.432083,143.645541" id="Fill-3" fill="#18BBB8"></path>
            <polygon id="Fill-5" fill="#17242A" points="241.970833 180.995841 244.883333 180.995841 244.883333 0.878090909 241.970833 0.878090909"></polygon>
            <path d="M353.056667,87.785375 C353.056667,82.844375 352.369167,78.4315795 350.998333,74.5553068 C349.6275,70.6831932 347.685833,67.4099886 345.1775,64.7356932 C342.669167,62.0613977 339.660833,60.0234432 336.144167,58.6218295 C332.635833,57.2160568 328.7525,56.5131705 324.5025,56.5131705 L303.731667,56.5131705 L303.731667,119.107489 L324.5025,119.107489 C328.7525,119.107489 332.635833,118.404602 336.144167,117.002989 C339.660833,115.601375 342.669167,113.56342 345.1775,110.889125 C347.685833,108.21483 349.6275,104.941625 350.998333,101.065352 C352.369167,97.1932386 353.056667,92.7638068 353.056667,87.785375 M358.3775,87.785375 C358.3775,93.2670568 357.556667,98.1955795 355.919167,102.570943 C354.2775,106.946307 351.969167,110.672852 348.99,113.74642 C346.015,116.819989 342.444167,119.174034 338.281667,120.808557 C334.115,122.451398 329.523333,123.26658 324.5025,123.26658 L298.560833,123.26658 L298.560833,52.3540795 L324.5025,52.3540795 C329.523333,52.3540795 334.115,53.1775795 338.281667,54.8121023 C342.444167,56.4507841 346.015,58.8048295 348.99,61.8783977 C351.969167,64.9519659 354.2775,68.6785114 355.919167,73.053875 C357.556667,77.4333977 358.3775,82.341125 358.3775,87.785375" id="Fill-7" fill="#17242A"></path>
            <path d="M406.849167,93.3007455 C406.849167,90.62645 406.474167,88.2308136 405.72,86.1096773 C404.97,83.9885409 403.9075,82.1918136 402.536667,80.7236545 C401.165833,79.2513364 399.5325,78.1242227 397.640833,77.3381545 C395.753333,76.5562455 393.67,76.1611318 391.395,76.1611318 C388.82,76.1611318 386.511667,76.5645636 384.47,77.3631091 C382.428333,78.1616545 380.665833,79.3178818 379.174167,80.8193136 C377.686667,82.3249045 376.490833,84.12995 375.590833,86.23445 C374.686667,88.33895 374.0825,90.6929955 373.7825,93.3007455 L406.849167,93.3007455 Z M373.5325,96.3535182 L373.5325,97.3101091 C373.5325,101.049132 373.965833,104.338973 374.836667,107.179632 C375.703333,110.02445 376.945,112.40345 378.549167,114.32495 C380.153333,116.24645 382.095,117.685495 384.37,118.658723 C386.645,119.627791 389.186667,120.110245 391.999167,120.110245 C394.5075,120.110245 396.6825,119.835745 398.52,119.282586 C400.3575,118.729427 401.9075,118.113882 403.161667,117.431791 C404.415833,116.745541 405.411667,116.125836 406.149167,115.572677 C406.8825,115.023677 407.42,114.745018 407.753333,114.745018 C408.186667,114.745018 408.52,114.915541 408.7575,115.248268 L410.061667,116.853677 C409.2575,117.851859 408.195,118.791814 406.874167,119.661064 C405.553333,120.530314 404.0825,121.274791 402.4575,121.890336 C400.836667,122.505882 399.099167,123.000814 397.240833,123.366814 C395.3825,123.732814 393.52,123.915814 391.645,123.915814 C388.2325,123.915814 385.124167,123.325223 382.311667,122.139882 C379.503333,120.954541 377.095,119.224359 375.086667,116.953495 C373.0825,114.682632 371.5325,111.9002 370.445,108.610359 C369.3575,105.320518 368.815833,101.548223 368.815833,97.3101091 C368.815833,93.7332909 369.324167,90.4351318 370.345,87.4114727 C371.365833,84.3878136 372.836667,81.7800636 374.761667,79.5923818 C376.6825,77.4047 379.040833,75.6953136 381.836667,74.4559045 C384.628333,73.2206545 387.799167,72.60095 391.345,72.60095 C394.1575,72.60095 396.765833,73.0875636 399.174167,74.0566318 C401.578333,75.0215409 403.67,76.4356318 405.445,78.2905864 C407.22,80.1455409 408.615833,82.4247227 409.636667,85.1322909 C410.653333,87.8398591 411.165833,90.9467 411.165833,94.4486545 C411.165833,95.1848136 411.065833,95.6880636 410.865833,95.9584045 C410.665833,96.2245864 410.328333,96.3535182 409.861667,96.3535182 L373.5325,96.3535182 Z" id="Fill-8" fill="#17242A"></path>
            <path d="M452.10875,99.1617364 C447.35875,99.3322591 443.27125,99.7065773 439.842083,100.28885 C436.40875,100.875282 433.587917,101.669668 431.362917,102.672009 C429.13375,103.67435 427.487917,104.868009 426.417083,106.252986 C425.34625,107.642123 424.812917,109.218418 424.812917,110.990191 C424.812917,112.662145 425.092083,114.10535 425.637917,115.323964 C426.192083,116.546736 426.929583,117.549077 427.850417,118.330986 C428.767083,119.117055 429.829583,119.695168 431.03375,120.057009 C432.237917,120.427168 433.492083,120.610168 434.800417,120.610168 C436.742083,120.610168 438.517083,120.402214 440.142083,119.986305 C441.767083,119.566236 443.27125,118.983964 444.65875,118.231168 C446.04625,117.478373 447.342083,116.584168 448.550417,115.548555 C449.754583,114.512941 450.942083,113.394145 452.10875,112.192168 L452.10875,99.1617364 Z M422.754583,80.4707818 C425.362917,77.8630318 428.104583,75.8916227 430.987917,74.5565545 C433.862917,73.2214864 437.12125,72.5560318 440.767083,72.5560318 C443.44625,72.5560318 445.787917,72.9761 447.79625,73.8287136 C449.800417,74.6813273 451.467083,75.8999409 452.787917,77.4887136 C454.10875,79.0774864 455.104583,80.9989864 455.775417,83.2532136 C456.442083,85.5074409 456.775417,88.0195318 456.775417,90.7936455 L456.775417,123.267827 L454.87125,123.267827 C453.867083,123.267827 453.24625,122.802009 453.012917,121.866214 L452.312917,115.448736 C450.942083,116.783805 449.579583,117.985782 448.22125,119.058827 C446.867083,120.127714 445.450417,121.030236 443.98375,121.766395 C442.50875,122.498395 440.917083,123.068191 439.212917,123.467464 C437.50875,123.866736 435.63375,124.066373 433.59625,124.066373 C431.887917,124.066373 430.23375,123.820986 428.625417,123.317736 C427.02125,122.818645 425.592083,122.049214 424.337917,121.0136 C423.079583,119.977986 422.079583,118.651236 421.325417,117.029191 C420.575417,115.407145 420.19625,113.460691 420.19625,111.189827 C420.19625,109.085327 420.79625,107.130555 422.000417,105.325509 C423.204583,103.524623 425.100417,101.952486 427.675417,100.617418 C430.250417,99.2781909 433.554583,98.2093045 437.58375,97.4066 C441.612917,96.6080545 446.45875,96.1380773 452.10875,96.0049864 L452.10875,90.7936455 C452.10875,86.1853727 451.117083,82.6335091 449.125417,80.1463727 C447.13375,77.6550773 444.18375,76.4115091 440.267083,76.4115091 C437.85875,76.4115091 435.80875,76.7442364 434.12125,77.41385 C432.429583,78.0834636 431.004583,78.8154636 429.829583,79.6181682 C428.65875,80.4208727 427.70875,81.1570318 426.97125,81.8224864 C426.23375,82.4921 425.617083,82.8248273 425.112917,82.8248273 C424.74625,82.8248273 424.442083,82.7458045 424.212917,82.5752818 C423.975417,82.4089182 423.775417,82.1926455 423.60875,81.9223045 L422.754583,80.4707818 Z" id="Fill-9" fill="#17242A"></path>
            <polygon id="Fill-10" fill="#17242A" points="473.1875 123.268659 478.004167 123.268659 478.004167 50.3556364 473.1875 50.3556364"></polygon>
            <path d="M558.037083,50.5523614 L528.732917,123.265748 L515.082917,123.265748 L485.77875,50.5523614 L497.920417,50.5523614 C499.22875,50.5523614 500.29125,50.8601341 501.107917,51.4798386 C501.92875,52.0995432 502.54125,52.8939295 502.94125,53.8588386 L518.699583,95.7533614 C519.299583,97.3254977 519.895417,99.0348841 520.47875,100.893998 C521.062083,102.744793 521.607917,104.695407 522.112083,106.729202 C522.54125,104.695407 523.020417,102.744793 523.54125,100.893998 C524.057917,99.0348841 524.61625,97.3254977 525.220417,95.7533614 L540.87875,53.8588386 C541.212083,53.0270205 541.80375,52.2659068 542.662083,51.5796568 C543.512083,50.8975659 544.574583,50.5523614 545.845417,50.5523614 L558.037083,50.5523614 Z" id="Fill-11" fill="#17242A"></path>
            <path d="M587.497083,91.3430614 C587.497083,89.908175 587.305417,88.5398341 586.917917,87.2380386 C586.53875,85.9320841 585.92625,84.7800159 585.08875,83.777675 C584.255417,82.7753341 583.20125,81.9809477 581.92625,81.3945159 C580.655417,80.8164023 579.134583,80.5169477 577.359583,80.5169477 C574.047083,80.5169477 571.455417,81.4569023 569.584583,83.3243341 C567.709583,85.195925 566.48875,87.8702205 565.917917,91.3430614 L587.497083,91.3430614 Z M565.717917,99.5655841 C566.155417,104.410925 567.534583,107.950311 569.859583,110.187902 C572.184583,112.425493 575.222083,113.544289 578.967917,113.544289 C580.872083,113.544289 582.522083,113.319698 583.909583,112.870516 C585.297083,112.417175 586.522083,111.913925 587.57625,111.364925 C588.62625,110.815925 589.580417,110.316834 590.434583,109.859334 C591.284583,109.410152 592.130417,109.185561 592.967917,109.185561 C594.034583,109.185561 594.87625,109.588993 595.47625,110.387539 L599.48875,115.399243 C598.017917,117.100311 596.397083,118.514402 594.622083,119.633198 C592.847083,120.751993 591.009583,121.63788 589.105417,122.286698 C587.197083,122.943834 585.272083,123.393016 583.334583,123.64672 C581.392917,123.892107 579.517917,124.01688 577.709583,124.01688 C574.097083,124.01688 570.730417,123.426289 567.60125,122.240948 C564.47625,121.055607 561.747083,119.30047 559.422083,116.979698 C557.097083,114.654766 555.267917,111.772516 553.92625,108.332948 C552.58875,104.89338 551.922083,100.900652 551.922083,96.3547659 C551.922083,92.8486523 552.497083,89.5380159 553.65125,86.431175 C554.805417,83.3243341 556.472083,80.620925 558.642917,78.3167886 C560.817917,76.0084932 563.459583,74.1826523 566.57625,72.8267886 C569.684583,71.4750841 573.192917,70.8013114 577.109583,70.8013114 C580.422083,70.8013114 583.472083,71.3253568 586.267917,72.3734477 C589.059583,73.4298568 591.467917,74.9604023 593.492917,76.960925 C595.517917,78.9656068 597.08875,81.4319477 598.209583,84.3516295 C599.330417,87.2754705 599.892917,90.6110614 599.892917,94.3542432 C599.892917,95.3898568 599.842917,96.2424705 599.73875,96.907925 C599.63875,97.5775386 599.472083,98.1099023 599.23875,98.5133341 C599.005417,98.9126068 598.68875,99.1871068 598.28875,99.3368341 C597.884583,99.4865614 597.36375,99.5655841 596.730417,99.5655841 L565.717917,99.5655841 Z" id="Fill-12" fill="#17242A"></path>
            <path d="M640.638333,82.2250864 C640.2675,82.7948818 639.8925,83.2024727 639.509167,83.4520182 C639.125833,83.7015636 638.596667,83.8304955 637.93,83.8304955 C637.255,83.8304955 636.571667,83.6641318 635.8675,83.3272455 C635.1675,82.9945182 634.38,82.6368364 633.513333,82.2500409 C632.6425,81.8674045 631.646667,81.5055636 630.525833,81.1728364 C629.405,80.8401091 628.109167,80.6695864 626.638333,80.6695864 C624.396667,80.6695864 622.659167,81.1312455 621.421667,82.0504045 C620.18,82.9695636 619.559167,84.1798591 619.559167,85.6812909 C619.559167,86.7169045 619.913333,87.5861545 620.613333,88.2890409 C621.3175,88.9919273 622.246667,89.5991545 623.400833,90.1148818 C624.555,90.6347682 625.8675,91.1213818 627.3425,91.5705636 C628.809167,92.0197455 630.325833,92.5188364 631.88,93.0512 C633.434167,93.5835636 634.950833,94.2032682 636.421667,94.9061545 C637.896667,95.6048818 639.205,96.48245 640.363333,97.5347 C641.5175,98.58695 642.446667,99.8554727 643.146667,101.344427 C643.850833,102.829223 644.196667,104.62595 644.196667,106.73045 C644.196667,109.234223 643.738333,111.550836 642.8175,113.671973 C641.900833,115.793109 640.550833,117.623109 638.78,119.157814 C637.009167,120.696677 634.800833,121.898655 632.159167,122.767905 C629.513333,123.632995 626.471667,124.0697 623.021667,124.0697 C621.250833,124.0697 619.496667,123.907495 617.755,123.591405 C616.0175,123.275314 614.359167,122.826132 612.784167,122.2397 C611.213333,121.653268 609.7425,120.979495 608.371667,120.210064 C607.000833,119.440632 605.813333,118.608814 604.809167,117.702132 L608.021667,112.544859 C608.388333,111.94595 608.846667,111.471814 609.400833,111.139086 C609.955,110.806359 610.663333,110.639995 611.534167,110.639995 C612.371667,110.639995 613.138333,110.84795 613.838333,111.263859 C614.5425,111.683927 615.33,112.133109 616.200833,112.619723 C617.071667,113.102177 618.100833,113.551359 619.284167,113.971427 C620.471667,114.387336 621.955,114.595291 623.725833,114.595291 C625.0675,114.595291 626.2175,114.445564 627.188333,114.146109 C628.159167,113.846655 628.9425,113.439064 629.546667,112.919177 C630.146667,112.40345 630.5925,111.817018 630.875833,111.164041 C631.163333,110.515223 631.305,109.837291 631.305,109.138564 C631.305,107.998973 630.946667,107.075655 630.225833,106.356132 C629.505,105.636609 628.571667,105.012745 627.413333,104.476223 C626.263333,103.943859 624.93,103.453086 623.425833,103.020541 C621.921667,102.587995 620.3925,102.101382 618.834167,101.569018 C617.28,101.032495 615.755,100.400314 614.2675,99.6641545 C612.775833,98.9321545 611.459167,98.0046773 610.305,96.8817227 C609.146667,95.7629273 608.213333,94.3862682 607.4925,92.7475864 C606.775833,91.1130636 606.413333,89.1250182 606.413333,86.7876091 C606.413333,84.6456773 606.834167,82.6202 607.671667,80.6987 C608.505,78.7772 609.759167,77.0802909 611.43,75.6079727 C613.105,74.1398136 615.188333,72.9711091 617.68,72.1018591 C620.171667,71.2326091 623.055,70.8000636 626.334167,70.8000636 C630.013333,70.8000636 633.363333,71.3989727 636.375833,72.6051091 C639.38,73.8070864 641.859167,75.3792227 643.800833,77.3132 L640.638333,82.2250864 Z" id="Fill-13" fill="#17242A"></path>
            <path d="M670.740833,124.06762 C668.399167,124.06762 666.324167,123.726575 664.52,123.040325 C662.711667,122.358234 661.190833,121.380848 659.953333,120.112325 C658.711667,118.839643 657.778333,117.304939 657.140833,115.499893 C656.5075,113.694848 656.190833,111.661052 656.190833,109.38603 L656.190833,81.5242795 L651.324167,81.5242795 C650.586667,81.5242795 649.9575,81.2913705 649.440833,80.8213932 C648.924167,80.3514159 648.661667,79.6526886 648.661667,78.7168932 L648.661667,73.3059159 L656.940833,71.8044841 L659.749167,58.4205295 C660.12,56.9149386 661.136667,56.1663023 662.815833,56.1663023 L670.036667,56.1663023 L670.036667,71.9001432 L683.386667,71.9001432 L683.386667,81.5242795 L670.036667,81.5242795 L670.036667,108.483507 C670.036667,109.922552 670.3825,111.057984 671.065833,111.889802 C671.753333,112.72578 672.7325,113.145848 674.003333,113.145848 C674.67,113.145848 675.240833,113.066825 675.7075,112.917098 C676.178333,112.76737 676.578333,112.601007 676.911667,112.418007 C677.249167,112.235007 677.5575,112.064484 677.840833,111.914757 C678.124167,111.76503 678.42,111.690166 678.72,111.690166 C679.124167,111.690166 679.4575,111.785825 679.724167,111.968825 C679.990833,112.151825 680.2575,112.459598 680.528333,112.892143 L684.690833,119.509257 C682.786667,121.014848 680.628333,122.15028 678.22,122.919711 C675.811667,123.684984 673.315833,124.06762 670.740833,124.06762" id="Fill-14" fill="#17242A"></path>
            <path d="M713.644167,113.645355 C717.59,113.645355 720.519167,112.285332 722.423333,109.561127 C724.331667,106.836923 725.285833,102.790127 725.285833,97.4082636 C725.285833,92.0638318 724.331667,88.0295136 722.423333,85.3094682 C720.519167,82.5811045 717.59,81.2210818 713.644167,81.2210818 C709.594167,81.2210818 706.619167,82.5811045 704.710833,85.3094682 C702.806667,88.0295136 701.8525,92.0638318 701.8525,97.4082636 C701.8525,102.790127 702.806667,106.836923 704.710833,109.561127 C706.619167,112.285332 709.594167,113.645355 713.644167,113.645355 M713.644167,70.7984 C717.5275,70.7984 721.0525,71.4181045 724.231667,72.6533545 C727.410833,73.8886045 730.135833,75.6520591 732.415,77.9395591 C734.69,80.2270591 736.444167,83.0094909 737.681667,86.2826955 C738.915,89.5600591 739.54,93.2491727 739.54,97.3583545 C739.54,101.467536 738.915,105.169127 737.681667,108.458968 C736.444167,111.748809 734.69,114.547877 732.415,116.852014 C730.135833,119.15615 727.410833,120.927923 724.231667,122.167332 C721.0525,123.402582 717.5275,124.018127 713.644167,124.018127 C709.731667,124.018127 706.1775,123.402582 702.981667,122.167332 C699.79,120.927923 697.0525,119.15615 694.7775,116.852014 C692.5025,114.547877 690.74,111.748809 689.481667,108.458968 C688.2275,105.169127 687.6025,101.467536 687.6025,97.3583545 C687.6025,93.2491727 688.2275,89.5600591 689.481667,86.2826955 C690.74,83.0094909 692.5025,80.2270591 694.7775,77.9395591 C697.0525,75.6520591 699.79,73.8886045 702.981667,72.6533545 C706.1775,71.4181045 709.731667,70.7984 713.644167,70.7984" id="Fill-15" fill="#17242A"></path>
            <path d="M761.267917,80.1210023 C762.909583,77.180525 764.797083,74.8555932 766.934583,73.154525 C769.07625,71.4492977 771.58875,70.5966841 774.46375,70.5966841 C776.805417,70.5966841 778.71375,71.1498432 780.184583,72.2520023 L779.280417,82.4750477 C779.11375,83.1446614 778.855417,83.6021614 778.505417,83.8517068 C778.155417,84.1054114 777.67625,84.226025 777.07625,84.226025 C776.53875,84.226025 775.767917,84.1553205 774.76375,84.0055932 C773.76375,83.8517068 772.822083,83.7768432 771.955417,83.7768432 C770.684583,83.7768432 769.555417,83.9640023 768.567917,84.3300023 C767.584583,84.7001614 766.705417,85.2158886 765.934583,85.8855023 C765.167917,86.5509568 764.472083,87.3702977 763.85125,88.3393659 C763.234583,89.3084341 762.655417,90.4105932 762.122083,91.6458432 L762.122083,123.267411 L748.272083,123.267411 L748.272083,71.599025 L756.45125,71.599025 C757.855417,71.599025 758.82625,71.8527295 759.359583,72.3518205 C759.897083,72.8550705 760.280417,73.7243205 760.51375,74.9595705 L761.267917,80.1210023 Z" id="Fill-16" fill="#17242A"></path>
            <path d="M818.173333,82.2250864 C817.8025,82.7948818 817.4275,83.2024727 817.044167,83.4520182 C816.660833,83.7015636 816.131667,83.8304955 815.465,83.8304955 C814.79,83.8304955 814.106667,83.6641318 813.4025,83.3272455 C812.7025,82.9945182 811.915,82.6368364 811.048333,82.2500409 C810.1775,81.8674045 809.181667,81.5055636 808.060833,81.1728364 C806.94,80.8401091 805.644167,80.6695864 804.173333,80.6695864 C801.931667,80.6695864 800.194167,81.1312455 798.956667,82.0504045 C797.715,82.9695636 797.094167,84.1798591 797.094167,85.6812909 C797.094167,86.7169045 797.448333,87.5861545 798.148333,88.2890409 C798.8525,88.9919273 799.781667,89.5991545 800.935833,90.1148818 C802.09,90.6347682 803.4025,91.1213818 804.8775,91.5705636 C806.344167,92.0197455 807.860833,92.5188364 809.415,93.0512 C810.969167,93.5835636 812.485833,94.2032682 813.956667,94.9061545 C815.431667,95.6048818 816.74,96.48245 817.898333,97.5347 C819.0525,98.58695 819.981667,99.8554727 820.681667,101.344427 C821.385833,102.829223 821.731667,104.62595 821.731667,106.73045 C821.731667,109.234223 821.273333,111.550836 820.3525,113.671973 C819.435833,115.793109 818.085833,117.623109 816.315,119.157814 C814.544167,120.696677 812.335833,121.898655 809.694167,122.767905 C807.048333,123.632995 804.006667,124.0697 800.556667,124.0697 C798.785833,124.0697 797.031667,123.907495 795.29,123.591405 C793.5525,123.275314 791.894167,122.826132 790.319167,122.2397 C788.748333,121.653268 787.2775,120.979495 785.906667,120.210064 C784.535833,119.440632 783.348333,118.608814 782.344167,117.702132 L785.556667,112.544859 C785.923333,111.94595 786.381667,111.471814 786.935833,111.139086 C787.49,110.806359 788.198333,110.639995 789.069167,110.639995 C789.906667,110.639995 790.673333,110.84795 791.373333,111.263859 C792.0775,111.683927 792.865,112.133109 793.735833,112.619723 C794.606667,113.102177 795.635833,113.551359 796.819167,113.971427 C798.006667,114.387336 799.49,114.595291 801.260833,114.595291 C802.6025,114.595291 803.7525,114.445564 804.723333,114.146109 C805.694167,113.846655 806.4775,113.439064 807.081667,112.919177 C807.681667,112.40345 808.1275,111.817018 808.410833,111.164041 C808.698333,110.515223 808.84,109.837291 808.84,109.138564 C808.84,107.998973 808.481667,107.075655 807.760833,106.356132 C807.04,105.636609 806.106667,105.012745 804.948333,104.476223 C803.798333,103.943859 802.465,103.453086 800.960833,103.020541 C799.456667,102.587995 797.9275,102.101382 796.369167,101.569018 C794.815,101.032495 793.29,100.400314 791.8025,99.6641545 C790.310833,98.9321545 788.994167,98.0046773 787.84,96.8817227 C786.681667,95.7629273 785.748333,94.3862682 785.0275,92.7475864 C784.310833,91.1130636 783.948333,89.1250182 783.948333,86.7876091 C783.948333,84.6456773 784.369167,82.6202 785.206667,80.6987 C786.04,78.7772 787.294167,77.0802909 788.965,75.6079727 C790.64,74.1398136 792.723333,72.9711091 795.215,72.1018591 C797.706667,71.2326091 800.59,70.8000636 803.869167,70.8000636 C807.548333,70.8000636 810.898333,71.3989727 813.910833,72.6051091 C816.915,73.8070864 819.394167,75.3792227 821.335833,77.3132 L818.173333,82.2250864 Z" id="Fill-17" fill="#17242A"></path>
        </g>
    </g>
</svg>