<svg xmlns="http://www.w3.org/2000/svg" width="28" height="28" viewBox="0 0 28 28">
    <g fill="none" fill-rule="evenodd">
        <circle cx="14" cy="14" r="14" fill="#FFF"/>
        <path fill="#FFD200" d="M1.018 14C1.018 6.842 6.842 1.018 14 1.018c7.158 0 12.982 5.824 12.982 12.982a12.95 12.95 0 0 1-4.373 9.705c-.15-.104-.3-.196-.454-.274l-4.31-2.155a1.128 1.128 0 0 1-.628-1.014v-1.506c.1-.123.205-.262.314-.415a10.374 10.374 0 0 0 1.332-2.609 1.848 1.848 0 0 0 1.061-1.674v-1.805c0-.441-.162-.87-.451-1.206V8.671c.026-.264.12-1.755-.959-2.985-.938-1.071-2.457-1.613-4.514-1.613-2.057 0-3.576.542-4.514 1.613-1.079 1.23-.985 2.721-.959 2.985v2.376c-.289.336-.451.764-.451 1.206v1.805c0 .56.251 1.083.682 1.436.412 1.615 1.26 2.838 1.575 3.252v1.474c0 .415-.227.797-.592.996l-4.025 2.196a3.68 3.68 0 0 0-.383.242A12.95 12.95 0 0 1 1.018 14z"/>
    </g>
</svg>
